<svg width="190" height="37" viewBox="0 0 190 37" fill="none" xmlns="http://www.w3.org/2000/svg">
    <g id="BCBS Logo" clip-path="url(#clip0_5539_17203)">
        <g id="Group">
            <g id="Group_2">
                <path id="Vector"
                    d="M81.8516 15.5168V0.317023H87.5576C90.2739 0.149459 93.0519 1.28713 93.0519 4.25478C93.0519 5.91719 91.8922 7.07691 90.3797 7.5796V7.6237C92.2979 8.02497 93.7266 9.35225 93.7266 11.5835C93.7266 14.5952 89.9387 15.6888 87.6017 15.5213H81.8516V15.5168ZM87.6634 6.41988C89.0348 6.41988 89.7888 5.85105 89.7888 4.62959C89.7888 3.40814 89.0304 2.8393 87.6634 2.8393H85.1147V6.42429H87.6634V6.41988ZM87.6634 12.9902C89.2023 12.9902 90.2518 12.7168 90.2518 10.9706C90.2518 9.22437 89.1979 8.95098 87.6634 8.95098H85.1147V12.9946H87.6634V12.9902Z"
                    fill="black" />
                <path id="Vector_2" d="M98.9698 0.316406V15.5162H95.8125V0.316406H98.9698Z"
                    fill="black" />
                <path id="Vector_3"
                    d="M108.574 14.2098C107.9 15.1799 106.912 15.8326 105.311 15.8326C104.258 15.8326 102.216 15.0344 101.837 13.4955C101.669 12.8429 101.625 12.1682 101.625 11.811V4.94531H104.787V11.2863C104.804 12.424 105.122 13.7292 106.683 13.7292C107.671 13.7292 108.535 12.8252 108.579 11.2863V4.94531H111.736V13.6234C111.758 14.2539 111.798 14.8889 111.864 15.5195H108.702L108.574 14.2143V14.2098Z"
                    fill="black" />
                <path id="Vector_4"
                    d="M117.329 11.0752C117.329 12.4422 117.519 13.7298 119.142 13.7298C120.235 13.7298 120.782 13.3285 121.078 12.3628H123.922C123.648 14.9733 121.602 15.8376 119.142 15.8376C115.522 15.8376 114.066 13.7959 114.066 10.255C114.066 7.07572 115.918 4.63281 119.142 4.63281C121.122 4.63281 122.762 5.30748 123.648 7.1595C123.944 7.75039 124.089 8.38096 124.173 9.05562C124.257 9.70824 124.257 10.3829 124.257 11.0752H117.329ZM120.994 8.97184C120.994 7.81212 120.681 6.74059 119.142 6.74059C117.691 6.74059 117.374 7.81653 117.329 8.97184H120.994Z"
                    fill="black" />
                <path id="Vector_5"
                    d="M134.888 5.24249C134.91 3.64181 133.94 2.35862 131.982 2.35862C129.667 2.35862 129.076 5.78928 129.076 7.9191C129.076 10.0489 129.667 13.4796 131.982 13.4796C133.94 13.4796 134.91 12.1964 134.888 10.5957H138.363C138.217 14.4056 135.479 15.8387 131.982 15.8387C127.581 15.8387 125.602 12.364 125.602 7.92351C125.602 3.48306 127.581 0.00390625 131.982 0.00390625C135.479 0.00390625 138.217 1.43702 138.363 5.2469H134.888V5.24249Z"
                    fill="black" />
                <path id="Vector_6"
                    d="M142.939 4.94682L143.001 6.86499H143.045C143.72 5.20258 145.069 4.77926 146.648 4.82336V7.62344H145.281C144.751 7.66754 144.059 7.95857 143.742 8.40393C143.402 8.99482 143.34 9.58129 143.318 10.278V15.521H140.179L140.157 7.0546C140.157 6.61365 140.095 5.72732 140.051 4.94682H142.935H142.939Z"
                    fill="black" />
                <path id="Vector_7"
                    d="M153.567 15.8331C150.114 15.8331 148.051 13.5578 148.051 10.233C148.051 6.90816 150.114 4.63281 153.567 4.63281C157.02 4.63281 159.084 6.90816 159.084 10.233C159.084 13.5578 157.02 15.8331 153.567 15.8331ZM153.567 13.7254C155.503 13.7254 155.82 11.913 155.82 10.2286C155.82 8.54411 155.507 6.73177 153.567 6.73177C151.627 6.73177 151.314 8.54411 151.314 10.2286C151.314 11.913 151.631 13.7254 153.567 13.7254Z"
                    fill="black" />
                <path id="Vector_8"
                    d="M166.687 7.76853C166.643 7.05418 165.972 6.73669 165.254 6.73669C164.389 6.73669 163.993 6.98803 163.993 7.68475C163.993 9.34716 170.034 8.3991 170.034 12.3589C170.034 14.6739 167.212 15.8336 165.254 15.8336C162.789 15.8336 160.641 14.8635 160.602 12.4427H163.53C163.591 13.2629 164.328 13.7259 165.258 13.7259C166.122 13.7259 166.775 13.3687 166.775 12.5485C166.775 11.7283 165.258 11.3491 164.628 11.1992C162.608 10.7141 160.734 10.2732 160.734 7.80821C160.734 5.59901 163.41 4.62891 165.262 4.62891C167.494 4.62891 169.39 5.42704 169.535 7.76853H166.691H166.687Z"
                    fill="black" />
                <path id="Vector_9"
                    d="M177.214 7.76853C177.174 7.05418 176.5 6.73669 175.781 6.73669C174.917 6.73669 174.52 6.98803 174.52 7.68475C174.52 9.34716 180.561 8.3991 180.561 12.3589C180.561 14.6739 177.739 15.8336 175.781 15.8336C173.316 15.8336 171.169 14.8635 171.129 12.4427H174.057C174.119 13.2629 174.859 13.7259 175.785 13.7259C176.65 13.7259 177.302 13.3687 177.302 12.5485C177.302 11.7283 175.785 11.3491 175.155 11.1992C173.131 10.7141 171.261 10.2732 171.261 7.80821C171.261 5.59901 173.933 4.62891 175.79 4.62891C178.021 4.62891 179.917 5.42704 180.063 7.76853H177.219H177.214Z"
                    fill="black" />
                <path id="Vector_10"
                    d="M81.8516 36.1537V20.9495H87.5576C90.2739 20.7819 93.0519 21.9196 93.0519 24.8872C93.0519 26.5496 91.8922 27.7094 90.3797 28.212V28.2517C92.2979 28.653 93.7266 29.9803 93.7266 32.2115C93.7266 35.2233 89.9387 36.3169 87.6017 36.1493H81.8516V36.1537ZM87.6634 27.0567C89.0348 27.0567 89.7888 26.4879 89.7888 25.2664C89.7888 24.045 89.0304 23.4762 87.6634 23.4762H85.1147V27.0567H87.6634ZM87.6634 33.627C89.2023 33.627 90.2518 33.3536 90.2518 31.603C90.2518 29.8524 89.1979 29.5834 87.6634 29.5834H85.1147V33.627H87.6634Z"
                    fill="black" />
                <path id="Vector_11" d="M98.9698 20.9495V36.1537H95.8125V20.9495H98.9698Z"
                    fill="black" />
                <path id="Vector_12"
                    d="M108.574 34.8427C107.9 35.8128 106.912 36.4654 105.311 36.4654C104.258 36.4654 102.216 35.6672 101.837 34.1283C101.669 33.4757 101.625 32.801 101.625 32.4438V25.5781H104.787V31.9191C104.804 33.0568 105.122 34.362 106.683 34.362C107.671 34.362 108.535 33.458 108.579 31.9191V25.5781H111.736V34.2518C111.758 34.8823 111.798 35.5173 111.864 36.1479H108.702L108.574 34.8427Z"
                    fill="black" />
                <path id="Vector_13"
                    d="M117.329 31.7075C117.329 33.0789 117.519 34.3621 119.142 34.3621C120.235 34.3621 120.782 33.9608 121.078 32.9951H123.922C123.648 35.6056 121.602 36.4699 119.142 36.4699C115.522 36.4699 114.066 34.4282 114.066 30.8917C114.066 27.7124 115.918 25.2695 119.142 25.2695C121.122 25.2695 122.762 25.9442 123.648 27.7962C123.944 28.3871 124.089 29.0177 124.173 29.6923C124.257 30.345 124.257 31.0196 124.257 31.7119H117.329V31.7075ZM120.994 29.6041C120.994 28.4444 120.681 27.3729 119.142 27.3729C117.691 27.3729 117.374 28.4488 117.329 29.6041H120.994Z"
                    fill="black" />
                <path id="Vector_14"
                    d="M134.448 25.284C134.32 23.745 133.5 22.9866 131.921 22.9866C130.722 22.9866 129.5 23.6172 129.5 24.9444C129.5 26.5892 130.973 26.7744 132.278 27.0919C134.593 27.6828 138.006 28.3354 138.006 31.3868C138.006 35.157 134.721 36.4623 131.458 36.4623C127.983 36.4623 125.523 35.1173 125.624 31.281H128.953C128.825 32.9655 129.796 34.1031 131.502 34.1031C132.807 34.1031 134.536 33.7019 134.536 32.0791C134.536 30.2888 132.366 30.1654 131.061 29.8258C128.936 29.3011 126.03 28.331 126.03 25.6367C126.03 22.162 129.231 20.623 132.349 20.623C135.299 20.623 137.592 22.2237 137.592 25.2752H134.452L134.448 25.284Z"
                    fill="black" />
                <path id="Vector_15"
                    d="M140.324 36.1535V20.9492H143.459V26.8228L143.504 26.8669C144.156 25.8968 145.148 25.2662 146.745 25.2662C147.798 25.2662 149.84 26.0467 150.219 27.5812C150.387 28.2338 150.431 28.9085 150.431 29.2657V36.1535H147.274V29.7948C147.252 28.6572 146.939 27.374 145.378 27.374C144.39 27.374 143.526 28.2603 143.481 29.7948V36.1535H140.324Z"
                    fill="black" />
                <path id="Vector_16"
                    d="M156.412 20.9492V23.6655H153.043V20.9492H156.412ZM156.306 25.5793V36.149H153.149V25.5793H156.306Z"
                    fill="black" />
                <path id="Vector_17"
                    d="M161.802 31.7075C161.802 33.0789 161.992 34.3621 163.614 34.3621C164.708 34.3621 165.255 33.9608 165.55 32.9951H168.394C168.121 35.6056 166.079 36.4699 163.614 36.4699C159.994 36.4699 158.539 34.4282 158.539 30.8917C158.539 27.7124 160.391 25.2695 163.614 25.2695C165.594 25.2695 167.235 25.9442 168.121 27.7962C168.417 28.3871 168.562 29.0177 168.65 29.6923C168.734 30.345 168.734 31.0196 168.734 31.7119H161.807L161.802 31.7075ZM165.467 29.6041C165.467 28.4444 165.153 27.3729 163.614 27.3729C162.164 27.3729 161.846 28.4488 161.802 29.6041H165.467Z"
                    fill="black" />
                <path id="Vector_18" d="M173.868 20.9492V36.1535H170.711V20.9492H173.868Z"
                    fill="black" />
                <path id="Vector_19"
                    d="M183.868 20.9492H187.026V34.0457C187.026 34.7424 187.087 35.4567 187.132 36.1535H183.97C183.926 35.6463 183.886 35.1613 183.886 34.6586H183.842C183.145 35.9021 181.968 36.4709 180.601 36.4709C177.505 36.4709 176.055 33.5871 176.055 30.8708C176.055 28.1545 177.717 25.2706 181.002 25.2706C182.096 25.2706 183.233 25.9232 183.824 26.8096H183.868V20.958V20.9492ZM181.593 34.3632C183.3 34.3632 183.868 32.3215 183.868 30.8664C183.868 29.4112 183.3 27.3696 181.593 27.3696C179.574 27.3696 179.318 29.2436 179.318 30.8664C179.318 32.4891 179.569 34.3632 181.593 34.3632Z"
                    fill="black" />
            </g>
            <g id="Group_3">
                <path id="Vector_20"
                    d="M33.9048 35.9691C32.9259 35.9691 32.2159 35.268 32.2159 34.2846C32.2159 33.3013 32.9215 32.609 33.9048 32.609C34.8881 32.609 35.5804 33.3145 35.5804 34.2846C35.5804 35.2548 34.8793 35.9691 33.9048 35.9691ZM33.9048 32.2871C32.798 32.2871 31.8984 33.1867 31.8984 34.2846C31.8984 35.3826 32.798 36.291 33.9048 36.291C35.0116 36.291 35.9023 35.3915 35.9023 34.2846C35.9023 33.1778 35.0072 32.2871 33.9048 32.2871Z"
                    fill="#00A3E0" />
                <path id="Vector_21"
                    d="M33.8535 34.1338H33.4478V33.3974H34.0784C34.3517 33.3974 34.6207 33.4371 34.6207 33.759C34.6207 34.1911 34.171 34.1382 33.8535 34.1382M34.9382 33.7678C34.9382 33.3533 34.7354 33.1328 34.1401 33.1328H33.1523V35.417H33.4434V34.4028H33.9328L34.5766 35.417H34.9074L34.2283 34.4028C34.6251 34.3675 34.9338 34.1999 34.9338 33.7634"
                    fill="#00A3E0" />
                <path id="Vector_22"
                    d="M25.9107 10.1596V0.171875H9.99211V10.1596H0V26.1355H9.99211V36.1232H25.9107V26.1355H35.9028V10.1596H25.9107Z"
                    fill="#00A3E0" />
            </g>
            <g id="Group_4">
                <path id="Vector_23"
                    d="M68.1893 35.9825C67.228 35.9825 66.5357 35.2946 66.5357 34.3289C66.5357 33.3632 67.2325 32.6842 68.1893 32.6842C69.1462 32.6842 69.8297 33.3721 69.8297 34.3289C69.8297 35.2858 69.1418 35.9825 68.1893 35.9825ZM68.1893 32.3711C67.1046 32.3711 66.2227 33.2486 66.2227 34.3289C66.2227 35.4093 67.1046 36.2956 68.1893 36.2956C69.2741 36.2956 70.1472 35.4137 70.1472 34.3289C70.1472 33.2442 69.2697 32.3711 68.1893 32.3711Z"
                    fill="#00A3E0" />
                <path id="Vector_24"
                    d="M68.1332 34.1787H67.7363V33.4555H68.3537C68.6271 33.4555 68.8872 33.4996 68.8872 33.8127C68.8872 34.2316 68.4463 34.1787 68.1332 34.1787ZM69.1959 33.8127C69.1959 33.4114 68.9975 33.1953 68.4154 33.1953H67.4453V35.4354H67.7319V34.4388H68.2126L68.8431 35.4354H69.165L68.4948 34.4388C68.8872 34.4079 69.1915 34.2448 69.1915 33.8082"
                    fill="#00A3E0" />
                <path id="Vector_25"
                    d="M68.0114 0.189513C64.1487 2.13855 60.2947 3.18362 55.7749 3.20126C51.255 3.21449 47.4011 2.12091 43.5339 0.171875C40.9939 5.16793 40.5927 13.286 42.7886 20.0635C44.9052 26.5985 49.0062 32.547 55.7749 36.2907C62.5436 32.5514 66.6445 26.5985 68.7611 20.0635C70.957 13.2816 70.5514 5.18557 68.0159 0.189513"
                    fill="#00A3E0" />
            </g>
            <path id="Vector_26"
                d="M24.0683 25.9397V25.953L19.5352 17.4381C19.2045 16.7105 19.35 15.5067 20.5935 15.3347L27.2167 14.6953C27.6268 15.7757 27.8473 16.953 27.8473 18.1745C27.8473 21.3229 26.3701 24.1318 24.0683 25.9353"
                fill="#F9F9F9" />
            <path id="Vector_27"
                d="M23.4067 26.4293H23.4023C21.8457 27.4479 19.9804 28.0476 17.9785 28.0476C15.9765 28.0476 14.1113 27.4479 12.5547 26.4249L17.3611 19.2373C17.7183 18.7346 18.2519 18.7743 18.5914 19.2373L23.3978 26.4249H23.4023L23.4067 26.4293Z"
                fill="#F9F9F9" />
            <path id="Vector_28"
                d="M8.10988 18.1784C8.10988 16.9525 8.33036 15.7796 8.74045 14.6992L15.3592 15.3386C16.6027 15.5106 16.7438 16.7144 16.4175 17.442L11.8801 25.9569V25.9436C9.58268 24.1357 8.10547 21.3312 8.10547 18.1828"
                fill="#F9F9F9" />
            <path id="Vector_29"
                d="M17.9805 20.7852C17.9276 20.7852 17.8791 20.8072 17.8394 20.8645L14.5234 25.9444C15.5773 26.4162 16.7503 26.6764 17.9805 26.6764C19.2108 26.6764 20.3794 26.4162 21.4377 25.9444L18.1172 20.8645C18.0776 20.8116 18.0291 20.7852 17.9805 20.7852Z"
                fill="#00A3E0" />
            <path id="Vector_30"
                d="M14.7362 16.6193L9.72249 16.1562C9.56816 16.8045 9.48438 17.4835 9.48438 18.1758C9.48438 20.2968 10.2561 22.2282 11.5304 23.7143L15.0449 17.0073C15.1286 16.8 15.1022 16.6457 14.7406 16.6193"
                fill="#00A3E0" />
            <path id="Vector_31"
                d="M17.9817 8.30859C21.9371 8.30859 25.3545 10.6369 26.9243 14.0058H19.8999C18.8989 13.9837 18.4535 13.3972 18.4359 12.921C18.4094 12.3566 18.502 12.1758 18.9694 11.5717C19.4765 10.8926 19.1282 9.59619 17.9817 9.57414C16.8352 9.59619 16.4824 10.897 16.9939 11.5717C17.4614 12.1758 17.5496 12.3566 17.5275 12.921C17.5099 13.3972 17.0689 13.9837 16.0635 14.0058H9.03906C10.6089 10.6369 14.0219 8.30859 17.9817 8.30859Z"
                fill="#F9F9F9" />
            <path id="Vector_32"
                d="M24.4384 12.6492C23.3757 11.4101 21.9558 10.4752 20.3419 10.0078C20.8446 10.8412 20.4345 11.9304 19.9626 12.4463C19.8744 12.5345 19.9185 12.6271 19.9979 12.6492H24.4384Z"
                fill="#00A3E0" />
            <path id="Vector_33"
                d="M21.2189 16.6193C20.8573 16.6457 20.8308 16.8 20.9146 17.0073L24.4246 23.7143C25.7034 22.2238 26.4751 20.2924 26.4751 18.1758C26.4751 17.4835 26.3913 16.8089 26.2326 16.1562L21.2189 16.6193Z"
                fill="#00A3E0" />
            <path id="Vector_34"
                d="M15.6199 10.0078C14.0016 10.4752 12.5861 11.4056 11.5234 12.6492H15.9639C16.0433 12.6271 16.0874 12.5345 15.9948 12.4463C15.5229 11.9304 15.1217 10.8412 15.6199 10.0078Z"
                fill="#00A3E0" />
            <path id="Vector_35"
                d="M66.2038 19.2914C64.3032 24.8651 61.3356 29.8083 55.7707 33.2566C55.7707 33.2566 55.7707 33.2566 55.7795 33.261H55.7707C50.2058 29.8083 47.2382 24.8651 45.3376 19.287C43.6488 14.3306 43.2387 8.53204 45.0907 4.00781C47.8731 4.96469 49.5047 5.26013 51.0216 5.49384C52.4326 5.71432 53.6938 5.85102 55.7663 5.87747H55.7751C57.8388 5.85102 59.1043 5.71432 60.5154 5.49384C62.0279 5.26013 63.6594 4.96469 66.4463 4.00781C68.3027 8.53204 67.8882 14.3351 66.2038 19.287"
                fill="#F9F9F9" />
            <path id="Vector_36"
                d="M60.6061 6.79457C58.979 7.01064 57.3651 7.17379 55.782 7.18702H55.7732C54.1814 7.17379 52.5719 7.01064 50.9447 6.79457C49.3176 6.57409 47.7434 6.20368 46.0545 5.75391C44.8727 9.09637 45.1241 13.3163 46.0369 17.0689C47.7434 24.1419 52.0119 29.5171 55.7776 31.8895C59.5434 29.5215 63.8119 24.1419 65.5184 17.0689C66.4268 13.3163 66.6737 9.09637 65.4964 5.75391C63.8119 6.20368 62.2333 6.57409 60.6105 6.79457"
                fill="#00A3E0" />
            <path id="Vector_37"
                d="M59.7676 10.5648C59.6838 10.8426 59.6176 10.8382 59.4369 11.0102C59.0576 11.3541 58.5549 11.7069 58.0655 12.1787C57.7524 12.4786 57.4481 12.655 57.2233 13.0165C57.1703 13.0959 57.0557 13.3208 57.0557 13.3208C56.2179 13.1532 55.3668 13.1356 54.7142 13.0033L54.6833 12.289C54.6833 12.289 55.5212 12.2801 55.6049 11.7774C55.6049 11.751 55.5873 11.5967 55.4947 11.5261C55.38 11.4423 55.1287 11.3497 55.0714 11.3277C55.7064 11.4291 56.262 11.6584 56.9146 11.945C56.9543 11.8789 56.8484 11.6363 56.7999 11.5834C56.7117 11.482 56.6103 11.4026 56.381 11.3497C55.9842 11.2483 55.0317 11.1292 55.0317 11.1292C55.0317 11.1292 55.3756 11.116 55.8386 11.0984C56.0415 11.0675 56.2487 10.9837 56.2928 10.9176C56.3413 10.8162 56.2752 10.6574 56.1385 10.5075C56.0459 10.4061 55.9489 10.3135 55.8739 10.2076C55.7769 10.0709 55.6534 9.81959 55.4815 9.66526C55.2698 9.41391 54.6304 9.17138 54.6304 9.17138C54.6304 9.17138 54.5775 8.74365 54.6833 8.5364C54.7627 8.38207 55.1022 8.36443 55.2125 8.41735C55.6887 8.68633 56.2311 8.97736 56.8705 9.09201C57.0028 9.18902 57.0072 9.21989 57.0469 9.41391C57.1395 9.84164 56.9719 10.4678 57.0601 10.7677C57.1042 10.8647 57.1968 10.8603 57.2718 10.8206C57.867 10.5031 58.2683 9.94747 58.8724 9.69171C59.1546 9.57266 59.9572 9.97834 59.7764 10.5648"
                fill="#F9F9F9" />
            <path id="Vector_38"
                d="M57.1224 18.7445C57.1224 18.7445 57.1973 17.479 57.2062 16.8705C57.5413 16.7382 57.6162 16.4075 57.4884 16.1385C57.4178 15.9885 57.1665 15.8827 57.0165 15.843C56.3198 15.6666 55.6849 15.6358 54.9661 15.5564C54.3355 15.4903 53.8372 15.4065 53.2596 15.2566C52.0778 14.9523 51.0768 14.4099 50.5521 13.334C49.9039 12.0023 50.486 10.3531 51.7603 9.68725C52.726 9.18456 53.8108 9.28157 54.7853 9.65198C55.1248 9.78426 55.3056 10.0753 55.5129 10.3619C55.6055 10.4898 55.751 10.5427 55.8304 10.6838C55.8789 10.7632 55.7686 10.8029 55.7245 10.8117C55.5129 10.8734 54.7985 10.8823 54.5648 10.8558C54.2738 10.8161 53.7887 10.8337 53.4977 10.8955C53.802 11.0675 54.1327 11.2835 54.4369 11.4026C54.6221 11.4731 54.7677 11.4731 54.9396 11.5569C55.0102 11.5922 55.213 11.6495 55.213 11.7465C55.191 11.8391 55.0234 11.8744 54.8999 11.9141C54.6266 11.9891 54.2473 12.0067 53.8946 11.9229C53.339 11.795 53.0788 11.4687 52.7348 11.6716C52.5055 11.8083 52.5011 12.1213 52.5761 12.4388C52.6996 12.9327 53.2155 13.1355 53.652 13.2811C55.1689 13.7705 56.7917 13.4927 58.2733 14.2556C58.8465 14.551 59.4947 15.1463 59.6138 15.7813C60.1209 18.4315 57.1268 18.7445 57.1268 18.7445"
                fill="#F9F9F9" />
            <path id="Vector_39"
                d="M54.7259 16.0982C54.7259 16.0982 55.0257 16.129 55.7533 16.1775C56.3133 16.2172 56.6881 16.3716 56.6881 16.3716L56.6176 19.0393C56.0223 18.9247 55.6342 18.863 55.0786 18.788C54.8978 17.8223 54.6641 17.4916 54.2761 16.7816C54.1879 16.6185 54.2629 16.5568 54.2893 16.5171C54.3422 16.4201 54.7303 16.323 54.7303 16.323L54.7215 16.0938L54.7259 16.0982Z"
                fill="#F9F9F9" />
            <path id="Vector_40"
                d="M58.779 21.9103C58.6776 22.3424 58.3998 22.6864 57.9456 22.9598C57.4694 23.2464 56.9711 23.2685 56.9711 23.2685L57.0108 21.8045C57.0108 21.8045 57.121 21.778 57.196 21.6854C57.271 21.5928 57.2886 21.5311 57.271 21.4032C57.2577 21.3194 57.1916 21.2092 57.0593 21.1519C56.9138 21.0901 56.6933 21.0681 56.6007 21.0593C55.8775 20.9711 55.2161 20.8917 54.5106 20.777C53.2318 20.5698 52.3278 19.8334 52.4028 18.6163C52.4557 17.7962 53.3156 17.5404 53.9241 17.2891C54.1225 17.6418 54.3033 18.0211 54.3739 18.2107C54.4885 18.537 54.5502 18.753 54.5502 18.753C54.5502 18.753 54.2769 18.8015 54.2989 19.0264C54.3209 19.2249 54.5414 19.3087 54.6781 19.3307C55.5733 19.4542 56.7594 19.6041 57.39 19.8158C57.8089 19.9613 58.219 20.195 58.4527 20.5213C58.8055 21.0107 58.8893 21.4076 58.7702 21.9191"
                fill="#F9F9F9" />
            <path id="Vector_41"
                d="M55.2578 21.3828C55.8399 21.449 56.0515 21.471 56.5454 21.5283L56.4969 23.9448L55.9369 23.6405L55.3813 23.3715L55.2578 21.3828Z"
                fill="#F9F9F9" />
            <path id="Vector_42"
                d="M57.5073 27.1151C57.1898 27.3797 56.8106 27.4679 56.8106 27.4679L56.8502 26.436C56.8502 26.436 56.9649 26.3302 56.934 26.2023C56.8811 25.9951 56.1447 25.5012 55.7523 25.3513C55.351 25.1925 54.8174 25.0426 54.4338 24.875C53.5475 24.4914 53.2256 23.7109 53.5872 22.8643C53.7194 22.5512 54.0722 22.3351 54.2706 22.2205C54.4823 22.097 54.791 22 54.791 22L54.8836 23.2082C54.8836 23.2082 54.7689 23.2523 54.7337 23.3582C54.6675 23.5698 54.8615 23.6889 54.9144 23.7109C55.4965 23.9711 56.3431 24.3062 56.9605 24.6722C57.7586 25.1396 58.0232 25.4792 58.0232 26.0436C58.0232 26.5507 57.8071 26.8726 57.5117 27.1195"
                fill="#F9F9F9" />
            <path id="Vector_43"
                d="M56.3706 29.7336C56.3706 29.9232 56.2956 30.0731 55.934 30.082C55.6342 30.082 55.5019 29.9805 55.4931 29.6675C55.4445 28.2784 55.3828 25.668 55.3828 25.668C55.3828 25.668 55.7753 25.787 55.9605 25.8973C56.0178 25.9281 56.2206 26.0604 56.4014 26.2456C56.4367 26.2985 56.4676 26.3118 56.4632 26.3956C56.4411 27.4098 56.3794 29.2882 56.375 29.7336"
                fill="#F9F9F9" />
            <path id="Vector_44"
                d="M54.8346 28.5864C54.7817 28.9524 54.9316 29.1068 54.8963 29.2787C54.8346 29.5566 54.6582 29.4728 54.5524 29.2655C54.4069 28.9877 54.3098 28.8466 54.2702 28.4189C54.204 27.7398 54.5436 27.4135 54.6979 27.2592C54.8655 27.0916 55.0198 27.0078 55.0198 27.0078L55.0727 28.1499C55.0727 28.1499 54.8875 28.2204 54.8346 28.5864Z"
                fill="#F9F9F9" />
            <path id="Vector_45"
                d="M53.9167 9.9415C54.1063 10.0738 54.0666 10.3119 54.3356 10.2634C54.4767 10.2414 54.5605 10.1532 54.6839 10.065C54.7016 10.0562 54.8427 10.0738 54.8824 10.087C54.5825 9.78276 53.9828 9.78276 53.5859 9.76953C53.6874 9.96355 53.7976 9.86213 53.9122 9.9371"
                fill="#00A3E0" />
        </g>
        <g id="Group_5">
            <path id="Vector_46"
                d="M181.754 15.6328C181.185 15.6328 180.775 15.2227 180.775 14.6539C180.775 14.085 181.185 13.6793 181.754 13.6793C182.323 13.6793 182.728 14.0894 182.728 14.6539C182.728 15.2183 182.323 15.6328 181.754 15.6328ZM181.754 13.4941C181.11 13.4941 180.59 14.0189 180.59 14.6539C180.59 15.2888 181.11 15.818 181.754 15.818C182.398 15.818 182.914 15.2932 182.914 14.6539C182.914 14.0145 182.393 13.4941 181.754 13.4941Z"
                fill="black" />
            <path id="Vector_47"
                d="M181.722 14.5664H181.488V14.1387H181.854C182.013 14.1387 182.171 14.1608 182.171 14.346C182.171 14.5973 181.911 14.5664 181.726 14.5664M182.357 14.3548C182.357 14.1167 182.237 13.9844 181.894 13.9844H181.32V15.3117H181.488V14.7252H181.774L182.149 15.3117H182.343L181.946 14.7252C182.176 14.7031 182.357 14.6061 182.357 14.3548Z"
                fill="black" />
        </g>
        <g id="Group_6">
            <path id="Vector_48"
                d="M188.844 35.959C188.275 35.959 187.865 35.5489 187.865 34.98C187.865 34.4112 188.275 34.0055 188.844 34.0055C189.413 34.0055 189.818 34.4156 189.818 34.98C189.818 35.5445 189.413 35.959 188.844 35.959ZM188.844 33.8203C188.2 33.8203 187.68 34.3451 187.68 34.98C187.68 35.615 188.2 36.1442 188.844 36.1442C189.488 36.1442 190.004 35.6194 190.004 34.98C190.004 34.3406 189.483 33.8203 188.844 33.8203Z"
                fill="black" />
            <path id="Vector_49"
                d="M188.808 34.8907H188.574V34.4629H188.94C189.099 34.4629 189.257 34.485 189.257 34.6702C189.257 34.9215 188.997 34.8907 188.812 34.8907M189.443 34.679C189.443 34.4409 189.323 34.3086 188.98 34.3086H188.406V35.6359H188.574V35.0494H188.86L189.235 35.6359H189.429L189.032 35.0494C189.262 35.0274 189.443 34.9303 189.443 34.679Z"
                fill="black" />
        </g>
    </g>
    <defs>
        <clipPath id="clip0_5539_17203">
            <rect width="190" height="36.4672" fill="transparent" />
        </clipPath>
    </defs>
</svg>